Coordinates
version=1
nRows=17
nColumns=40
inDegrees=yes

Units are S.I. units (second, meters, Newtons, ...)
Angles are in degrees.

endheader
time	pelvis_tilt	pelvis_list	pelvis_rotation	pelvis_tx	pelvis_ty	pelvis_tz	hip_flexion_r	hip_adduction_r	hip_rotation_r	knee_angle_r	knee_angle_r_beta	ankle_angle_r	subtalar_angle_r	mtp_angle_r	hip_flexion_l	hip_adduction_l	hip_rotation_l	knee_angle_l	knee_angle_l_beta	ankle_angle_l	subtalar_angle_l	mtp_angle_l	lumbar_extension	lumbar_bending	lumbar_rotation	arm_flex_r	arm_add_r	arm_rot_r	elbow_flex_r	pro_sup_r	wrist_flex_r	wrist_dev_r	arm_flex_l	arm_add_l	arm_rot_l	elbow_flex_l	pro_sup_l	wrist_flex_l	wrist_dev_l
     44.42878571	     -3.97530495	     -2.80376842	     -1.66643312	      1.02286201	      0.93323829	      0.43952331	     25.49711823	     -3.61745894	    -11.10136926	     18.86532681	     18.86532681	      6.17777596	      0.86934201	      6.49190312	      4.60686212	     -2.40588516	    -14.88479580	     11.76881378	     11.76881378	     14.44944759	      2.98657876	     -8.55898596	     -9.80205041	     -0.55299580	     -1.21431259	    -10.93453252	    -13.83771570	     -1.84415551	     28.23152369	     46.09836386	      0.00000000	      0.00000000	     21.05293344	    -16.43971707	     -4.63759696	     44.25656224	     46.23748007	      0.00000000	      0.00000000
     44.44257143	     -3.90933875	     -2.48614112	     -1.58480377	      1.02355745	      0.93239576	      0.44036592	     24.75396534	     -3.65181876	    -11.29579740	     18.58281098	     18.58281098	      5.90698931	      0.70255820	      6.23818247	      4.01956705	     -2.08825402	    -14.90706702	     11.60221053	     11.60221053	     14.76212201	      3.26263491	     -8.63798882	     -9.65421772	     -0.74661036	     -1.34637826	    -10.36490450	    -14.00064702	     -2.09376132	     28.88943929	     46.09363557	      0.00000000	      0.00000000	     20.29716826	    -16.23357727	     -4.78707647	     44.18289674	     46.24577864	      0.00000000	      0.00000000
     44.45635714	     -3.96425066	     -2.18702331	     -1.47884058	      1.02421351	      0.93133573	      0.44127619	     24.23471023	     -3.72691886	    -11.45671945	     18.54196075	     18.54196075	      5.76881566	      0.52622240	      6.20974561	      3.69750583	     -1.82844238	    -14.78954316	     11.68316249	     11.68316249	     15.10018722	      3.31341655	     -8.76687725	     -9.37175932	     -0.91724678	     -1.09682081	     -9.85395244	    -14.13327957	     -2.15762074	     29.14840361	     46.09187660	      0.00000000	      0.00000000	     19.72652043	    -15.79224782	     -4.73180676	     44.01836249	     46.23246472	      0.00000000	      0.00000000
     44.47014286	     -3.84163736	     -1.97059881	     -1.38249487	      1.02522177	      0.93069890	      0.44236420	     23.19053996	     -3.60146883	    -11.32639189	     17.81255448	     17.81255448	      4.19686739	     -0.34891461	      2.34569675	      3.13529946	     -1.69448114	    -14.92629018	     11.78513503	     11.78513503	     15.88197625	      3.86607443	     -7.81514991	     -9.26997277	     -0.95076446	     -1.41136872	     -9.27044747	    -14.29520504	     -3.36810515	     30.77382666	     46.10870962	      0.00000000	      0.00000000	     18.66674766	    -15.39522841	     -6.24012478	     43.89534878	     46.37575371	      0.00000000	      0.00000000
     44.48392857	     -3.77640964	     -1.85425874	     -1.27421276	      1.02608912	      0.93009775	      0.44353311	     22.51554615	     -3.52397852	    -11.34362090	     17.75266099	     17.75266099	      4.11155862	     -0.61057774	      2.15381631	      2.67757113	     -1.66112568	    -14.77122587	     11.89275036	     11.89275036	     16.20357355	      3.88797494	     -7.80969527	     -9.13712032	     -0.88258747	     -1.30608699	     -8.40133138	    -14.49457401	     -3.50665176	     31.11882244	     46.11074661	      0.00000000	      0.00000000	     17.93006136	    -15.04516751	     -6.18385987	     43.37624762	     46.35669545	      0.00000000	      0.00000000
     44.49771429	     -3.74969414	     -1.76388967	     -1.15195248	      1.02693181	      0.92964909	      0.44488354	     21.75679508	     -3.34929913	    -11.04941812	     17.31624967	     17.31624967	      3.14620256	     -1.60577693	     -0.48421145	      2.37172453	     -1.72008961	    -14.69960367	     12.27258179	     12.27258179	     17.06241978	      4.19440345	     -6.44649145	     -8.95166907	     -0.78532261	     -1.33173501	     -7.30723476	    -14.50510015	     -4.35053576	     31.48583529	     46.15356306	      0.00000000	      0.00000000	     17.29707423	    -14.57630020	     -6.95742050	     42.11114595	     46.41106586	      0.00000000	      0.00000000
     44.51150000	     -3.78690158	     -1.70998984	     -1.05368106	      1.02768417	      0.92926355	      0.44629933	     21.33198900	     -3.28977058	    -11.09018944	     17.42112846	     17.42112846	      3.35840441	     -1.74635158	     -0.60553873	      2.05987282	     -1.78190239	    -14.49466292	     12.41232114	     12.41232114	     17.30595473	      4.18290809	     -6.50015185	     -8.76282697	     -0.65785771	     -0.84948173	     -6.52631590	    -14.68826434	     -4.40980155	     31.78169187	     46.15172868	      0.00000000	      0.00000000	     16.54077753	    -14.06339716	     -6.87195565	     41.80567751	     46.38989242	      0.00000000	      0.00000000
     44.52528571	     -3.65597676	     -1.84047690	     -0.99841857	      1.02844082	      0.92931618	      0.44791707	     20.78113759	     -3.02367800	    -10.98049374	     17.57815062	     17.57815062	      3.60834273	     -1.99727912	     -0.85580624	      1.66677853	     -2.07727600	    -14.34472918	     12.76571442	     12.76571442	     17.50360078	      3.95578820	     -6.37114091	     -8.73024291	     -0.25193956	     -0.65525518	     -5.34903513	    -15.00759882	     -4.57283683	     32.29193621	     46.15086746	      0.00000000	      0.00000000	     15.57718724	    -13.56617862	     -6.80145465	     41.21991616	     46.36545294	      0.00000000	      0.00000000
     44.53907143	     -3.56549048	     -2.10389342	     -0.80983968	      1.02901022	      0.92952775	      0.44970895	     20.17556984	     -2.57883238	    -10.77054843	     17.48455421	     17.48455421	      3.70468805	     -2.80324646	     -1.36961624	      1.61052385	     -2.60896656	    -13.90007006	     13.66060218	     13.66060218	     18.01893907	      3.56974952	     -5.70716807	     -8.71107810	      0.26657479	     -1.17984482	     -3.67487089	    -15.12054623	     -4.96110445	     33.17958566	     46.15073406	      0.00000000	      0.00000000	     14.43465561	    -13.65960273	     -6.99811258	     39.97303922	     46.36298323	      0.00000000	      0.00000000
     44.55285714	     -3.52998063	     -2.28804574	     -0.71108302	      1.02953472	      0.92986579	      0.45180978	     19.63498503	     -2.16390562	    -10.36778890	     17.28503440	     17.28503440	      3.20991873	     -3.89447276	     -3.56431680	      1.79014957	     -3.19817879	    -14.03016538	     15.04420982	     15.04420982	     19.80643698	      4.20660852	     -1.96536164	     -8.60372797	      0.66752143	     -0.93329678	     -2.24456965	    -15.08209208	     -6.10116303	     33.50615174	     46.20299047	      0.00000000	      0.00000000	     13.84707622	    -12.88973438	     -8.59519293	     38.27842053	     46.50648639	      0.00000000	      0.00000000
     44.56664286	     -3.38896294	     -2.40801401	     -0.69777055	      1.03014138	      0.93046527	      0.45399157	     19.13099327	     -1.91181183	    -10.27697571	     17.43623145	     17.43623145	      3.70107004	     -3.92839707	     -3.76578136	      1.57264754	     -3.56663800	    -13.85065655	     15.69353766	     15.69353766	     19.77874847	      3.87003201	     -1.95320537	     -8.65041213	      0.97467375	     -0.34439774	     -0.97424678	    -15.28522088	     -6.18725395	     34.02298099	     46.19680197	      0.00000000	      0.00000000	     12.89544423	    -12.35187701	     -8.52518361	     37.80854481	     46.48142909	      0.00000000	      0.00000000
     44.58042857	     -3.25999798	     -2.80679442	     -0.43740829	      1.03045426	      0.93100503	      0.45632550	     18.51739654	     -1.36670281	    -10.44624721	     17.36694872	     17.36694872	      4.13190604	     -4.15028711	     -3.88175616	      2.00381283	     -4.40959214	    -13.28046067	     17.47401803	     17.47401803	     19.98239229	      3.07830531	     -1.89594201	     -8.71958104	      1.58281808	     -0.68338946	      0.79637624	    -15.33969469	     -6.40294662	     34.98123679	     46.18204495	      0.00000000	      0.00000000	     11.77880061	    -12.42254507	     -8.57656907	     36.78089900	     46.46526710	      0.00000000	      0.00000000
     44.59421429	     -3.20089399	     -3.05286979	     -0.27201774	      1.03081306	      0.93157077	      0.45883907	     17.98537915	     -0.94412629	    -10.49236878	     17.27792996	     17.27792996	      4.52652461	     -4.29989429	     -3.99811008	      2.52511480	     -5.10387641	    -12.86554279	     19.27996754	     19.27996754	     20.14553389	      2.45165263	     -1.66262176	     -8.64451116	      2.00670030	     -0.73444552	      2.51624601	    -15.33725000	     -6.54416296	     35.89699223	     46.16243942	      0.00000000	      0.00000000	     10.62765841	    -12.25613082	     -8.66914450	     35.71631949	     46.45335415	      0.00000000	      0.00000000
     44.60800000	     -3.06183633	     -3.28704098	     -0.09517904	      1.03118153	      0.93224032	      0.46150816	     17.33171124	     -0.52297097	    -10.62115904	     17.13475324	     17.13475324	      4.95990297	     -4.30225399	     -4.14481914	      3.17138220	     -5.84694229	    -12.42963574	     21.45811151	     21.45811151	     20.14325459	      1.72142045	     -1.60322154	     -8.67102723	      2.37700843	     -0.70567596	      4.21322539	    -15.35271280	     -6.60419275	     36.84808697	     46.13588968	      0.00000000	      0.00000000	      9.57549661	    -12.06432278	     -8.75914773	     34.67951804	     46.44344656	      0.00000000	      0.00000000
     44.62178571	     -2.88876419	     -3.47920793	      0.10714532	      1.03154953	      0.93287976	      0.46426706	     16.63147716	     -0.14385284	    -10.81758782	     16.97943441	     16.97943441	      5.35782247	     -4.22668113	     -4.32701322	      4.01601754	     -6.59482300	    -11.88349615	     24.02973974	     24.02973974	     19.95163188	      0.88742419	     -1.87248679	     -8.71153221	      2.69018620	     -0.68371616	      5.93532212	    -15.34111011	     -6.51571472	     37.98575322	     46.09153427	      0.00000000	      0.00000000	      8.56111652	    -11.94432882	     -8.88738984	     33.53853747	     46.43910033	      0.00000000	      0.00000000
     44.63557143	     -2.55597217	     -3.63282081	      0.27287111	      1.03195039	      0.93367012	      0.46717334	     15.74644276	      0.21546646	    -10.99851791	     16.80719450	     16.80719450	      5.78975315	     -4.03591489	     -4.48313296	      4.88832153	     -7.33338452	    -11.26532895	     26.94082480	     26.94082480	     19.45361645	     -0.16815256	     -2.45388901	     -8.96227546	      2.91213517	     -0.28835486	      7.60831994	    -15.43408529	     -6.50338391	     38.91349303	     46.06406619	      0.00000000	      0.00000000	      7.72656438	    -11.79846968	     -8.88071046	     32.85218051	     46.42312173	      0.00000000	      0.00000000
     44.64935714	     -2.49644384	     -3.87912066	      0.53771435	      1.03212227	      0.93388158	      0.47006190	     15.13095964	      0.65927537	    -11.36828703	     16.55515514	     16.55515514	      6.10900921	     -3.82886413	     -4.64558941	      6.50389814	     -8.22719016	    -10.35154835	     30.52977201	     30.52977201	     18.58200554	     -1.40346355	     -3.56480521	     -8.83412961	      3.26568230	     -0.33811803	      9.34940115	    -15.38719847	     -6.39776582	     40.22573797	     46.01583597	      0.00000000	      0.00000000	      6.60134626	    -11.72681609	     -8.85249337	     31.86247867	     46.39968102	      0.00000000	      0.00000000
